<svg xmlns="http://www.w3.org/2000/svg" width="212.595" height="36.801" viewBox="0 0 212.595 36.801">
  <defs>
    <style>
      .cls-1, .cls-2 {
        fill: #e2e2e2;
      }

      .cls-2 {
        font-size: 29px;
        font-family: RobotoCondensed-Bold, Roboto;
        font-weight: 700;
      }
    </style>
  </defs>
  <g id="Group_1" data-name="Group 1" transform="translate(-140 -40.673)">
    <path id="Icon_awesome-readme" data-name="Icon awesome-readme" class="cls-1" d="M40,3.27H29.418a7.853,7.853,0,0,0-7.6,6.305,7.86,7.86,0,0,0-7.6-6.305H3.635A3.7,3.7,0,0,0,0,7.039v19.3a3.7,3.7,0,0,0,3.635,3.769h6.792c7.739,0,10.048,1.916,11.154,5.889a.239.239,0,0,0,.454,0c1.113-3.973,3.423-5.889,11.154-5.889h6.792a3.7,3.7,0,0,0,3.635-3.769V7.047A3.713,3.713,0,0,0,40,3.27ZM18.325,24.11a.268.268,0,0,1-.265.275H5.921a.268.268,0,0,1-.265-.275v-1.8a.268.268,0,0,1,.265-.275H18.067a.268.268,0,0,1,.265.275v1.8Zm0-4.782a.268.268,0,0,1-.265.275H5.921a.268.268,0,0,1-.265-.275v-1.8a.268.268,0,0,1,.265-.275H18.067a.268.268,0,0,1,.265.275v1.8Zm0-4.782a.268.268,0,0,1-.265.275H5.921a.268.268,0,0,1-.265-.275v-1.8a.268.268,0,0,1,.265-.275H18.067a.268.268,0,0,1,.265.275v1.8ZM37.96,24.1a.268.268,0,0,1-.265.275H25.556a.268.268,0,0,1-.265-.275V22.3a.268.268,0,0,1,.265-.275H37.7a.268.268,0,0,1,.265.275v1.8Zm0-4.782a.268.268,0,0,1-.265.275H25.556a.268.268,0,0,1-.265-.275v-1.8a.268.268,0,0,1,.265-.275H37.7a.268.268,0,0,1,.265.275v1.8Zm0-4.782a.268.268,0,0,1-.265.275H25.556a.268.268,0,0,1-.265-.275v-1.79a.268.268,0,0,1,.265-.275H37.7a.268.268,0,0,1,.265.275v1.79Z" transform="translate(140 41.311)"/>
    <text id="TolanBrary" class="cls-2" transform="translate(189.595 68.673)"><tspan x="0" y="0">TOLANBRARY</tspan></text>
  </g>
</svg>
